<?xml version="1.0" encoding="UTF-8" standalone="no"?>
<svg width="1920" height="1080" viewBox="0 0 1920 1080" xmlns="http://www.w3.org/2000/svg">
  <defs>
    <linearGradient id="bg-gradient" x1="0%" y1="0%" x2="100%" y2="100%">
      <stop offset="0%" stop-color="#1e1f23" />
      <stop offset="100%" stop-color="#0f1013" />
    </linearGradient>
    <filter id="noise" x="0%" y="0%" width="100%" height="100%">
      <feTurbulence type="fractalNoise" baseFrequency="0.5" numOctaves="3" stitchTiles="stitch" />
      <feComponentTransfer>
        <feFuncR type="linear" slope="0.1" />
        <feFuncG type="linear" slope="0.1" />
        <feFuncB type="linear" slope="0.1" />
      </feComponentTransfer>
      <feComposite operator="in" in2="SourceGraphic" />
    </filter>
    <radialGradient id="accent-gradient" cx="50%" cy="50%" r="70%" fx="60%" fy="40%">
      <stop offset="0%" stop-color="#0871D0" stop-opacity="0.2" />
      <stop offset="100%" stop-color="#0871D0" stop-opacity="0" />
    </radialGradient>
    <mask id="mask" x="0" y="0" width="100%" height="100%">
      <rect x="0" y="0" width="100%" height="100%" fill="white"/>
    </mask>
  </defs>
  
  <!-- Background layer -->
  <rect width="100%" height="100%" fill="url(#bg-gradient)" />
  
  <!-- Accent color gradient -->
  <rect width="100%" height="100%" fill="url(#accent-gradient)" />
  
  <!-- Low-opacity dragon pattern -->
  <g opacity="0.05" mask="url(#mask)">
    <path d="M960 600 C 800 400, 700 350, 600 400 S 450 450, 375 350 S 275 200, 200 200 S 100 300, 50 400 S 50 550, 100 600 S 200 650, 300 600 S 400 500, 500 500 S 600 550, 700 600 S 850 700, 960 600 Z" fill="#0871D0" />
    <path d="M960 600 C 1120 400, 1220 350, 1320 400 S 1470 450, 1545 350 S 1645 200, 1720 200 S 1820 300, 1870 400 S 1870 550, 1820 600 S 1720 650, 1620 600 S 1520 500, 1420 500 S 1320 550, 1220 600 S 1070 700, 960 600 Z" fill="#0871D0" />
  </g>
  
  <!-- Subtle pixel noise overlay -->
  <rect width="100%" height="100%" filter="url(#noise)" opacity="0.05" />
</svg>
